<svg xmlns="http://www.w3.org/2000/svg" data-name="Layer 1" viewBox="0 0 100 125" x="0px" y="0px"><title>Artboard 32</title><g><rect x="55" y="39" width="22" height="6"/><rect x="55" y="55" width="22" height="6"/><rect x="23" y="71" width="54" height="6"/><rect x="23" y="23" width="54" height="6"/><path d="M27,62H42a4,4,0,0,0,4-4V42a4,4,0,0,0-4-4H27a4,4,0,0,0-4,4V58A4,4,0,0,0,27,62Zm2-18H40V56H29Z"/></g><text x="0" y="115" fill="#000000" font-size="5px" font-weight="bold" font-family="'Helvetica Neue', Helvetica, Arial-Unicode, Arial, Sans-serif">Created by Gregor Cresnar</text><text x="0" y="120" fill="#000000" font-size="5px" font-weight="bold" font-family="'Helvetica Neue', Helvetica, Arial-Unicode, Arial, Sans-serif">from the Noun Project</text></svg>