<svg xmlns="http://www.w3.org/2000/svg" xmlns:xlink="http://www.w3.org/1999/xlink" version="1.1" x="0px" y="0px" viewBox="-434 236 90 112.5" style="enable-background:new -434 236 90 90;" xml:space="preserve"><g><path d="M-355.4,255.5c-1.1-1.1-2.4-1.6-3.8-1.6h-5.4v-4.1c0-1.9-0.7-3.5-2-4.8c-1.3-1.3-2.9-2-4.8-2h-2.7c-1.9,0-3.5,0.7-4.8,2   c-1.3,1.3-2,2.9-2,4.8v4.1h-16.3v-4.1c0-1.9-0.7-3.5-2-4.8c-1.3-1.3-2.9-2-4.8-2h-2.7c-1.9,0-3.5,0.7-4.8,2c-1.3,1.3-2,2.9-2,4.8   v4.1h-5.4c-1.5,0-2.7,0.5-3.8,1.6c-1.1,1.1-1.6,2.3-1.6,3.8v54.4c0,1.5,0.5,2.7,1.6,3.8c1.1,1.1,2.3,1.6,3.8,1.6h59.8   c1.5,0,2.7-0.5,3.8-1.6c1.1-1.1,1.6-2.4,1.6-3.8v-54.4C-353.8,257.9-354.3,256.6-355.4,255.5z M-375.5,249.9h5.4v9.6h-5.4V249.9z    M-408.1,249.8h5.4v9.6h-5.4V249.8z M-406.8,313.7H-419v-12.2h12.2V313.7z M-406.8,298.8H-419v-13.6h12.2V298.8z M-406.8,282.5   H-419v-12.2h12.2V282.5z M-390.5,313.7h-13.6v-12.2h13.6V313.7z M-390.5,298.8h-13.6v-13.6h13.6V298.8z M-390.5,282.5h-13.6v-12.2   h13.6V282.5z M-374.2,313.7h-13.6v-12.2h13.6V313.7z M-374.2,298.8h-13.6v-13.6h13.6V298.8z M-374.2,282.5h-13.6v-12.2h13.6V282.5z    M-359.2,313.7h-12.2v-12.2h12.2V313.7z M-359.2,298.8h-12.2v-13.6h12.2V298.8z M-359.2,282.5h-12.2v-12.2h12.2V282.5z"/></g><text x="-434" y="341" fill="#000000" font-size="5px" font-weight="bold" font-family="'Helvetica Neue', Helvetica, Arial-Unicode, Arial, Sans-serif">Created by RocketDiction</text><text x="-434" y="346" fill="#000000" font-size="5px" font-weight="bold" font-family="'Helvetica Neue', Helvetica, Arial-Unicode, Arial, Sans-serif">from the Noun Project</text></svg>